<svg width="24" height="24" viewBox="0 0 24 24" fill="none" xmlns="http://www.w3.org/2000/svg">
<path fill-rule="evenodd" clip-rule="evenodd" d="M6.05757 0.660572C6.66477 0.356993 7.38915 0 8.72721 0C10.0653 0 10.7896 0.356965 11.3968 0.660539L11.4142 0.669237C11.8894 0.906878 12.2572 1.0908 13.0909 1.09083C14.4404 1.09087 15.2397 0.58768 15.5062 0.3874C15.921 0.0756247 16.4112 0.101911 16.7496 0.258438C17.0924 0.416978 17.4544 0.795251 17.4544 1.35433L17.4544 13.0908H20.7271C22.5339 13.0908 23.9998 14.5542 23.9998 16.3624V19.6362C23.9998 20.6453 23.7444 21.4746 23.3053 22.1334C22.8706 22.7853 22.299 23.2063 21.7604 23.4756C21.2262 23.7427 20.7052 23.8708 20.3269 23.9339C20.0997 23.9717 19.8671 24.0002 19.6362 23.9998H4.36361C3.35454 23.9998 2.52521 23.7444 1.86645 23.3053C1.21452 22.8706 0.793509 22.299 0.524258 21.7605C0.257142 21.2262 0.129023 20.7052 0.0659789 20.3269C0.0340263 20.1352 0.0176279 19.9731 0.00916431 19.8546C0.00211229 19.7559 2.88274e-05 19.6975 0 19.6362V1.35432C0 0.795254 0.362009 0.416979 0.704786 0.258433C1.04321 0.1019 1.53338 0.0756133 1.94823 0.387368C2.21474 0.587642 3.01404 1.09083 4.36361 1.09083C5.19722 1.09083 5.56499 0.906908 6.04019 0.669263L6.05757 0.660572ZM2.18542 19.6362L2.1818 2.92766C2.77108 3.12628 3.49887 3.27263 4.36361 3.27263C5.70167 3.27263 6.42605 2.91564 7.03325 2.61206L7.05063 2.60337C7.52583 2.36573 7.8936 2.1818 8.72721 2.1818C9.56085 2.1818 9.92863 2.36572 10.4038 2.60336L10.4212 2.61204C11.0284 2.9156 11.7527 3.27259 13.0908 3.27263C13.9555 3.27266 14.6833 3.12631 15.2726 2.92769V19.6362C15.2726 20.4905 15.4557 21.2159 15.7783 21.818H4.36361C3.73632 21.818 3.33838 21.6644 3.0767 21.4899C2.80818 21.3109 2.61556 21.0644 2.47572 20.7847C2.33375 20.5008 2.25732 20.2036 2.2181 19.9683C2.19966 19.8576 2.18848 19.7479 2.18542 19.6362ZM19.9682 21.7817C20.2036 21.7425 20.5008 21.6661 20.7847 21.5241C21.0644 21.3843 21.3109 21.1917 21.4899 20.9231C21.6643 20.6615 21.818 20.2635 21.818 19.6362V16.3624C21.818 15.7607 21.3303 15.2726 20.7271 15.2726H17.4544L17.4544 19.6362C17.4544 20.2635 17.6081 20.6615 17.7826 20.9231C17.9616 21.1917 18.2081 21.3843 18.4877 21.5241C18.7717 21.6661 19.0688 21.7425 19.3042 21.7817C19.4193 21.8009 19.5128 21.8101 19.5733 21.8144C19.7049 21.8238 19.8388 21.8033 19.9682 21.7817Z" fill="white"/>
<path d="M4.36361 7.63631C4.36361 7.03382 4.85202 6.54541 5.45451 6.54541H11.9999C12.6024 6.54541 13.0908 7.03382 13.0908 7.63631C13.0908 8.2388 12.6024 8.72721 11.9999 8.72721H5.45451C4.85202 8.72721 4.36361 8.2388 4.36361 7.63631Z" fill="white"/>
<path d="M4.36361 11.9999C4.36361 11.3974 4.85202 10.909 5.45451 10.909H11.9999C12.6024 10.909 13.0908 11.3974 13.0908 11.9999C13.0908 12.6024 12.6024 13.0908 11.9999 13.0908H5.45451C4.85202 13.0908 4.36361 12.6024 4.36361 11.9999Z" fill="white"/>
<path d="M4.36361 16.3635C4.36361 15.761 4.85202 15.2726 5.45451 15.2726H11.9999C12.6024 15.2726 13.0908 15.761 13.0908 16.3635C13.0908 16.966 12.6024 17.4544 11.9999 17.4544H5.45451C4.85202 17.4544 4.36361 16.966 4.36361 16.3635Z" fill="white"/>
</svg>
