<svg width="25" height="25" viewBox="0 0 25 25" fill="none" xmlns="http://www.w3.org/2000/svg">
<path d="M20.8334 15.6248C21.4087 15.6248 21.875 15.1585 21.875 14.5832C21.875 14.0079 21.4087 13.5415 20.8334 13.5415C20.2581 13.5415 19.7917 14.0079 19.7917 14.5832C19.7917 15.1585 20.2581 15.6248 20.8334 15.6248Z" fill="#0F0F0F"/>
<path fill-rule="evenodd" clip-rule="evenodd" d="M17.474 1.0263C19.2624 0.47983 21.1272 1.61597 21.4618 3.45589L21.8086 5.36335C23.0569 5.77302 23.9584 6.94783 23.9584 8.33318V11.2122C24.5977 11.7844 25 12.616 25 13.5415V15.6248C25 16.5504 24.5977 17.3819 23.9584 17.9541V20.8332C23.9584 22.5591 22.5592 23.9582 20.8334 23.9582H4.16669C2.4408 23.9582 1.04169 22.5591 1.04169 20.8332V8.33318C1.04169 6.78432 2.1685 5.49864 3.64708 5.25118L17.474 1.0263ZM21.875 16.6665C22.4503 16.6665 22.9167 16.2001 22.9167 15.6248V13.5415C22.9167 12.9662 22.4503 12.4998 21.875 12.4998H18.75C18.1747 12.4998 17.7084 12.9662 17.7084 13.5415V15.6248C17.7084 16.2001 18.1747 16.6665 18.75 16.6665H21.875ZM21.875 18.7498V20.8332C21.875 21.4085 21.4087 21.8748 20.8334 21.8748H4.16669C3.59139 21.8748 3.12502 21.4085 3.12502 20.8332V8.33318C3.12502 7.75788 3.59139 7.29151 4.16669 7.29151H20.8334C21.4062 7.29151 21.8711 7.75397 21.875 8.32592L21.875 10.4165H18.75C17.0241 10.4165 15.625 11.8156 15.625 13.5415V15.6248C15.625 17.3507 17.0241 18.7498 18.75 18.7498H21.875ZM19.4744 3.75719L19.7304 5.20818H10.4167L18.1492 2.94048C18.7463 2.76134 19.366 3.14327 19.4744 3.75719Z" fill="#0F0F0F"/>
</svg>
