<svg width="35" height="35" viewBox="0 0 35 35" fill="none" xmlns="http://www.w3.org/2000/svg">
<path d="M5.90944 14.8157C5.04152 14.8157 4.82179 15.4749 5.2942 16.123L7.97487 19.8364C8.3484 20.3528 8.91969 20.3418 9.28224 19.8364L11.9629 16.1121C12.4243 15.4858 12.2156 14.8157 11.3587 14.8157H9.76564C10.7654 10.8716 14.314 7.98218 18.5877 7.98218C23.6304 7.98218 27.6734 12.0251 27.6734 17.0679C27.6734 22.1106 23.6304 26.1755 18.5877 26.1646C15.6543 26.1536 13.0835 24.7803 11.4356 22.616C10.9851 22.0996 10.3259 21.9348 9.78761 22.3303C9.28224 22.6929 9.18336 23.407 9.67775 24.0112C11.6992 26.6479 15.0391 28.4277 18.5877 28.4277C24.8059 28.4277 29.9475 23.2861 29.9475 17.0679C29.9475 10.8496 24.8059 5.70801 18.5877 5.70801C13.1275 5.70801 8.50221 9.6521 7.44752 14.8157H5.90944ZM18.1812 10.7068C17.6428 10.7068 17.2144 11.1353 17.2144 11.6626V17.6172C17.2144 17.8809 17.3023 18.1226 17.489 18.3752L20.1038 21.825C20.4993 22.3413 21.0706 22.4292 21.543 22.0886C21.9934 21.77 22.0374 21.1877 21.6858 20.7153L19.137 17.2876V11.6626C19.137 11.1353 18.7085 10.7068 18.1812 10.7068Z" fill="#020202"/>
</svg>
