<svg width="25" height="25" viewBox="0 0 25 25" fill="none" xmlns="http://www.w3.org/2000/svg">
<path d="M12.5 9.37484C11.9247 9.37484 11.4583 9.84121 11.4583 10.4165V16.2349L10.1116 14.8882C9.7048 14.4815 9.04523 14.4815 8.63846 14.8882C8.23162 15.2951 8.23162 15.9545 8.63846 16.3614L11.7626 19.4855C12.169 19.892 12.828 19.8924 13.2349 19.4863L16.3594 16.3683C16.7662 15.9616 16.7662 15.3019 16.3594 14.8953C15.9526 14.4884 15.2931 14.4884 14.8862 14.8953L13.5417 16.2398V10.4165C13.5417 9.84121 13.0753 9.37484 12.5 9.37484Z" fill="#0F0F0F"/>
<path fill-rule="evenodd" clip-rule="evenodd" d="M21.875 1.0415C23.6009 1.0415 25 2.44061 25 4.1665V8.33317C25 10.0591 23.6009 11.4582 21.875 11.4582H19.7917V20.8332C19.7917 22.5591 18.3926 23.9582 16.6667 23.9582H8.33333C6.60744 23.9582 5.20833 22.5591 5.20833 20.8332V11.4582H3.125C1.39911 11.4582 0 10.0591 0 8.33317V4.1665C0 2.44061 1.39911 1.0415 3.125 1.0415H21.875ZM22.9167 8.33317C22.9167 8.90847 22.4503 9.37484 21.875 9.37484H19.7917V7.2915H20.8333C21.4086 7.2915 21.875 6.82513 21.875 6.24984C21.875 5.67454 21.4086 5.20817 20.8333 5.20817H4.16667C3.59137 5.20817 3.125 5.67454 3.125 6.24984C3.125 6.82513 3.59137 7.2915 4.16667 7.2915H5.20833V9.37484H3.125C2.5497 9.37484 2.08333 8.90847 2.08333 8.33317V4.1665C2.08333 3.59121 2.5497 3.12484 3.125 3.12484H21.875C22.4503 3.12484 22.9167 3.59121 22.9167 4.1665V8.33317ZM7.29167 7.2915V20.8332C7.29167 21.4085 7.75804 21.8748 8.33333 21.8748H16.6667C17.242 21.8748 17.7083 21.4085 17.7083 20.8332V7.2915H7.29167Z" fill="#0F0F0F"/>
</svg>
