<svg width="14" height="8" viewBox="0 0 14 8" fill="none" xmlns="http://www.w3.org/2000/svg">
<path d="M6.94986 7.99978C7.22409 7.99978 7.45915 7.89792 7.66287 7.67854L13.6333 1.58272C13.8057 1.41034 13.8997 1.19096 13.8997 0.932394C13.8997 0.415268 13.4923 0 12.9673 0C12.7088 0 12.4815 0.109693 12.3013 0.282069L6.94986 5.77457L1.59839 0.282069C1.41818 0.109693 1.18312 0 0.932394 0C0.407433 0 0 0.415268 0 0.932394C0 1.19096 0.0940229 1.41034 0.266398 1.58272L6.22902 7.67854C6.44057 7.89792 6.67563 7.99978 6.94986 7.99978Z" fill="#252525"/>
</svg>
