<svg width="35" height="35" viewBox="0 0 35 35" fill="none" xmlns="http://www.w3.org/2000/svg">
<path d="M4.06372 16.5185C4.06372 17.0898 4.50317 17.5842 5.2063 17.5842C5.54687 17.5842 5.85449 17.3974 6.12915 17.1777L7.38159 16.123V26.3403C7.38159 27.9662 8.35937 28.933 10.0403 28.933H24.9048C26.5747 28.933 27.5635 27.9662 27.5635 26.3403V16.0681L28.8818 17.1777C29.1455 17.3974 29.4531 17.5842 29.7937 17.5842C30.4419 17.5842 30.9363 17.1777 30.9363 16.5405C30.9363 16.1669 30.7935 15.8703 30.5078 15.6286L27.5635 13.1457V8.46552C27.5635 7.97113 27.2449 7.66351 26.7505 7.66351H25.2344C24.751 7.66351 24.4214 7.97113 24.4214 8.46552V10.509L19.071 6.01556C18.1152 5.21356 16.9067 5.21356 15.9509 6.01556L4.50317 15.6286C4.20654 15.8703 4.06372 16.1999 4.06372 16.5185ZM20.6641 19.5507C20.6641 19.0344 20.3345 18.7048 19.8181 18.7048H15.2039C14.6875 18.7048 14.3469 19.0344 14.3469 19.5507V26.7468H10.6226C9.94141 26.7468 9.56787 26.3622 9.56787 25.6701V14.2883L17.0276 8.02606C17.3352 7.76239 17.6868 7.76239 17.9944 8.02606L25.3662 14.2224V25.6701C25.3662 26.3622 24.9927 26.7468 24.3115 26.7468H20.6641V19.5507Z" fill="white"/>
</svg>
