<svg width="24" height="21" viewBox="0 0 24 21" fill="none" xmlns="http://www.w3.org/2000/svg">
<path d="M12 13.7379C12.2637 13.7314 12.5048 13.6465 12.7006 13.4637L18.4261 8.3827C18.5918 8.23902 18.6822 8.05616 18.6822 7.84064C18.6822 7.40961 18.2905 7.06348 17.7933 7.06348C17.5522 7.06348 17.3186 7.14838 17.1454 7.29859L12.0075 11.8767L6.85464 7.29859C6.68137 7.15491 6.45537 7.06348 6.20676 7.06348C5.70955 7.06348 5.31781 7.40961 5.31781 7.84064C5.31781 8.05616 5.40821 8.23902 5.57395 8.3827L11.3069 13.4637C11.5103 13.6465 11.7363 13.7379 12 13.7379Z" fill="#1C1C1E"/>
</svg>
