<svg width="30" height="30" viewBox="0 0 30 30" fill="none" xmlns="http://www.w3.org/2000/svg">
<path fill-rule="evenodd" clip-rule="evenodd" d="M21.8704 27.4105C22.3049 27.2367 22.6863 27.0619 23.0145 26.897C23.6659 28.0057 24.871 28.75 26.25 28.75C28.321 28.75 30 27.0711 30 25V17.5C30 15.4289 28.321 13.75 26.25 13.75C24.4976 13.75 23.0259 14.952 22.6145 16.5765C22.2573 16.7017 21.897 16.8186 21.5316 16.923C20.4741 17.2252 19.2003 17.4999 18.125 17.4999C16.5317 17.4999 13.6774 16.9192 12.0254 16.5456C10.7728 16.2623 9.48631 16.963 9.07306 18.2028L8.57887 19.6853C7.19336 19.1687 5.51589 18.3303 4.34519 17.7093C3.03569 17.0146 1.37119 17.5811 0.805857 18.9945L0.41159 19.9801C0.0263184 20.9433 0.269498 22.0817 1.11347 22.7772C2.07879 23.5727 3.9892 25.0473 6.33038 26.3287C8.64887 27.5977 11.5195 28.7499 14.375 28.7499C17.6709 28.7499 20.1718 28.09 21.8704 27.4105ZM25 25C25 25.6903 25.5596 26.25 26.25 26.25C26.9403 26.25 27.5 25.6903 27.5 25V17.5C27.5 16.8096 26.9403 16.25 26.25 16.25C25.5596 16.25 25 16.8096 25 17.5V25ZM18.125 19.9999C16.2018 19.9999 13.0667 19.3442 11.4739 18.984C11.4739 18.984 11.056 20.1597 10.9948 20.3432L15.8081 21.597C16.3854 21.7474 16.715 22.3549 16.5263 22.9209C16.3669 23.3992 15.8865 23.692 15.3892 23.6081C13.8628 23.3507 10.6904 22.7874 9.07306 22.2956C6.89489 21.6332 4.6385 20.6948 3.17364 19.9178C3.17364 19.9178 2.78678 20.7736 2.74378 20.8811C3.65462 21.6289 5.40985 22.9749 7.5307 24.1357C9.70606 25.3264 12.1367 26.2499 14.375 26.2499C18.7787 26.2499 21.4709 24.9444 22.5 24.3312V19.2445C21.0851 19.6674 19.6081 19.9999 18.125 19.9999Z" fill="white"/>
<path d="M14.9999 1.25C14.3096 1.25 13.7499 1.80964 13.7499 2.5V9.48205L12.1338 7.86598C11.6457 7.378 10.8542 7.378 10.3661 7.86598C9.8779 8.35426 9.8779 9.14558 10.3661 9.63386L14.115 13.3828C14.6028 13.8706 15.3936 13.871 15.8819 13.3837L19.6312 9.6421C20.1194 9.15413 20.1194 8.3625 19.6312 7.87452C19.143 7.38624 18.3516 7.38624 17.8634 7.87452L16.2499 9.48792V2.5C16.2499 1.80964 15.6903 1.25 14.9999 1.25Z" fill="white"/>
</svg>
